/* XPM */
static char * qmidictl_xpm[] = {
"26 26 196 2",
"  	c None",
". 	c #4D4D4B",
"+ 	c #F7F7F7",
"@ 	c #F3F3F3",
"# 	c #272826",
"$ 	c #626161",
"% 	c #80807F",
"& 	c #9E9E9E",
"* 	c #B8B8B8",
"= 	c #F5F5F5",
"- 	c #F6F6F6",
"; 	c #EEEEEE",
"> 	c #3E3E3D",
", 	c #535351",
"' 	c #80766A",
") 	c #6D615B",
"! 	c #FBFBFB",
"~ 	c #CECECE",
"{ 	c #8B8B8B",
"] 	c #F8F8F8",
"^ 	c #E7E7E7",
"/ 	c #574B36",
"( 	c #77684C",
"_ 	c #AB9C8C",
": 	c #675D57",
"< 	c #000100",
"[ 	c #CCCCCC",
"} 	c #FFFFFF",
"| 	c #F9F9F9",
"1 	c #D8D8D8",
"2 	c #1A170F",
"3 	c #695A3F",
"4 	c #706855",
"5 	c #A3A19D",
"6 	c #858582",
"7 	c #4C4C4A",
"8 	c #ECECEC",
"9 	c #C9C9C9",
"0 	c #ADADAD",
"a 	c #A7A7A7",
"b 	c #F1F1F1",
"c 	c #19140C",
"d 	c #383530",
"e 	c #A6A7A6",
"f 	c #C6C8C5",
"g 	c #8C8C89",
"h 	c #585856",
"i 	c #B6B6B6",
"j 	c #E1E1E1",
"k 	c #FEFEFE",
"l 	c #A8A8A8",
"m 	c #000000",
"n 	c #030100",
"o 	c #333130",
"p 	c #A7A7A4",
"q 	c #CACBC8",
"r 	c #8D8D8A",
"s 	c #61605F",
"t 	c #EFEFEF",
"u 	c #BABABA",
"v 	c #D1D1D1",
"w 	c #030000",
"x 	c #332F2F",
"y 	c #A9A9A7",
"z 	c #C8C9C6",
"A 	c #8E8D8B",
"B 	c #A6A7A4",
"C 	c #737270",
"D 	c #313330",
"E 	c #E0E0E0",
"F 	c #C3C3C3",
"G 	c #D9D9D9",
"H 	c #EAEAEA",
"I 	c #B0B0B0",
"J 	c #343131",
"K 	c #6A6A68",
"L 	c #929290",
"M 	c #C5C5C3",
"N 	c #CACCC9",
"O 	c #92928F",
"P 	c #484846",
"Q 	c #353735",
"R 	c #E5E5E5",
"S 	c #B4B4B4",
"T 	c #BFBFBF",
"U 	c #D0D0D0",
"V 	c #616161",
"W 	c #151312",
"X 	c #565455",
"Y 	c #B0B0AD",
"Z 	c #E4E6E3",
"` 	c #CBCDCA",
" .	c #989795",
"..	c #313130",
"+.	c #9F9F9F",
"@.	c #0F110F",
"#.	c #010100",
"$.	c #1C1A1A",
"%.	c #615E5E",
"&.	c #AAAAA7",
"*.	c #E3E5E2",
"=.	c #CFD1CE",
"-.	c #807F7E",
";.	c #3E3E3C",
">.	c #000200",
",.	c #010200",
"'.	c #1E1C1C",
").	c #625E5E",
"!.	c #A8A9A6",
"~.	c #B0B1AE",
"{.	c #72706D",
"].	c #3D3E3C",
"^.	c #1D1B1C",
"/.	c #615D5D",
"(.	c #8C8B89",
"_.	c #CECFCC",
":.	c #AFAFAD",
"<.	c #73716F",
"[.	c #3E3F3D",
"}.	c #010000",
"|.	c #171515",
"1.	c #575555",
"2.	c #898785",
"3.	c #ADAEAC",
"4.	c #A4A5A2",
"5.	c #878785",
"6.	c #595957",
"7.	c #000101",
"8.	c #262524",
"9.	c #686664",
"0.	c #8A8886",
"a.	c #AEAEAC",
"b.	c #A4A5A0",
"c.	c #A2A29C",
"d.	c #7A7B7B",
"e.	c #030403",
"f.	c #313231",
"g.	c #403F3F",
"h.	c #949492",
"i.	c #A09E9C",
"j.	c #D5D4B8",
"k.	c #C9C141",
"l.	c #7A7343",
"m.	c #030506",
"n.	c #131312",
"o.	c #2D2D2E",
"p.	c #5B5A58",
"q.	c #6E6B69",
"r.	c #403D3D",
"s.	c #E4E5E3",
"t.	c #F7F8BF",
"u.	c #C7BD29",
"v.	c #403808",
"w.	c #101110",
"x.	c #313131",
"y.	c #565657",
"z.	c #494512",
"A.	c #040401",
"B.	c #4B4949",
"C.	c #DDDEE1",
"D.	c #E4E3A4",
"E.	c #A09412",
"F.	c #2F2A10",
"G.	c #1C1B1A",
"H.	c #2B2D35",
"I.	c #C79E09",
"J.	c #756B02",
"K.	c #020304",
"L.	c #484646",
"M.	c #726D58",
"N.	c #2F280F",
"O.	c #4F4A29",
"P.	c #111103",
"Q.	c #0E1011",
"R.	c #342408",
"S.	c #D29B00",
"T.	c #817803",
"U.	c #302E1A",
"V.	c #4B4635",
"W.	c #5E5528",
"X.	c #4A421E",
"Y.	c #100E0A",
"Z.	c #221900",
"`.	c #AD7C05",
" +	c #64675F",
".+	c #D4D7D5",
"++	c #89857C",
"@+	c #474328",
"#+	c #1F1602",
"$+	c #786D38",
"%+	c #DFDDCE",
"&+	c #D6D8D5",
"*+	c #1A1B1D",
"=+	c #403E15",
"-+	c #5A5948",
";+	c #100E0D",
"                                                    ",
"    .                             + @               ",
"  # $ %                           & * = - ;         ",
"    > , ' )                     ! + ~   { ] ^       ",
"      / ( _ : <                   [ } }     | 1     ",
"      2 3 4 5 6 7               8 9   0 !   a b     ",
"        c d e f g h             i j ]   * k   @ l   ",
"        m n o p q r s           t   0 -   } u 9 v   ",
"          m w x y z A B C D     + b   E F G H I 1   ",
"            m m J K L M N O P Q   = R S T   U   V   ",
"            m m m W X Y Z `  .F ..  +.              ",
"              @.m #.$.%.&.*.=.-.;.>.                ",
"                < m ,.'.).!.Z ~.{.].m               ",
"                m >.< m ^./.(._.:.<.[.              ",
"                  < < < }.|.1.2.3.4.5.6.            ",
"                  m < >.m 7.8.9.0.a.b.c.d.          ",
"                    m < >.e.f.g.h.i.j.k.l.m.        ",
"                      m m n.o.p.q.r.s.t.u.v.        ",
"                        m w.x.y.z.A.B.C.D.E.F.      ",
"                          m G.H.I.J.K.L.M.N.O.P.    ",
"                            < Q.R.S.T.U.V.W.X.Y.    ",
"                                m Z.`. +.+++@+m     ",
"                                    #+$+%+&+*+      ",
"                                      =+-+;+m       ",
"                                                    ",
"                                                    "};
